<svg id="vuesax_linear_element-3" data-name="vuesax/linear/element-3" xmlns="http://www.w3.org/2000/svg" width="26" height="26" viewBox="0 0 26 26">
  <g id="element-3">
    <path id="Vector" d="M6.9,10.073H2.478C.306,10.073-.75,9.105-.75,7.115V2.207C-.75.217.306-.75,2.478-.75H6.855c2.172,0,3.228.967,3.228,2.957V7.126a2.84,2.84,0,0,1-.82,2.238A3.358,3.358,0,0,1,6.9,10.073ZM2.478.875c-1.445,0-1.6.427-1.6,1.332V7.115c0,.926.152,1.332,1.6,1.332H6.9a2,2,0,0,0,1.275-.29c.07-.063.284-.256.284-1.032V2.207C8.458,1.3,8.3.875,6.855.875Z" transform="translate(14.563 2.104)" fill="#858697"/>
    <path id="Vector-2" data-name="Vector" d="M6.855,10.083H2.478C.306,10.083-.75,9.027-.75,6.855V2.478C-.75.306.306-.75,2.478-.75H6.855c2.172,0,3.228,1.056,3.228,3.228V6.855C10.083,9.027,9.027,10.083,6.855,10.083ZM2.478.875c-1.274,0-1.6.33-1.6,1.6V6.855c0,1.274.33,1.6,1.6,1.6H6.855c1.274,0,1.6-.33,1.6-1.6V2.478c0-1.274-.33-1.6-1.6-1.6Z" transform="translate(14.563 14.563)" fill="#858697"/>
    <path id="Vector-3" data-name="Vector" d="M6.9,10.073H2.478C.306,10.073-.75,9.105-.75,7.115V2.207C-.75.217.306-.75,2.478-.75H6.855c2.172,0,3.228.967,3.228,2.957V7.126a2.84,2.84,0,0,1-.82,2.238A3.358,3.358,0,0,1,6.9,10.073ZM2.478.875c-1.445,0-1.6.427-1.6,1.332V7.115c0,.926.152,1.332,1.6,1.332H6.9a2,2,0,0,0,1.275-.29c.07-.063.284-.256.284-1.032V2.207C8.458,1.3,8.3.875,6.855.875Z" transform="translate(2.104 2.104)" fill="#858697"/>
    <path id="Vector-4" data-name="Vector" d="M6.855,10.083H2.478C.306,10.083-.75,9.027-.75,6.855V2.478C-.75.306.306-.75,2.478-.75H6.855c2.172,0,3.228,1.056,3.228,3.228V6.855C10.083,9.027,9.027,10.083,6.855,10.083ZM2.478.875c-1.274,0-1.6.33-1.6,1.6V6.855c0,1.274.33,1.6,1.6,1.6H6.855c1.274,0,1.6-.33,1.6-1.6V2.478c0-1.274-.33-1.6-1.6-1.6Z" transform="translate(2.104 14.563)" fill="#858697"/>
    <path id="Vector-5" data-name="Vector" d="M0,0H26V26H0Z" fill="none" opacity="0"/>
  </g>
</svg>
